<?xml version="1.0" encoding="utf-8"?>
<!-- Generator: Adobe Illustrator 28.0.0, SVG Export Plug-In . SVG Version: 6.00 Build 0)  -->
<svg version="1.1" id="Layer_1" xmlns="http://www.w3.org/2000/svg" xmlns:xlink="http://www.w3.org/1999/xlink" x="0px" y="0px"
	 viewBox="0 0 500 200" style="enable-background:new 0 0 500 200;" xml:space="preserve">
<style type="text/css">
	.st0{fill:#67BC45;}
</style>
<g>
	<g>
		<path class="st0" d="M144.36,30.54c14.76,0.12,23.99,5.71,27.7,16.76H84.68v0c0-9.26,7.51-16.76,16.76-16.76H144.36z
			 M172.24,47.95c0.91,3.1,1.43,6.56,1.55,10.39H84.68V47.95H172.24z M141.99,69.27c0.12-4.49-2.13-6.74-6.74-6.74h-18.59v6.83
			H84.68V59.7h89.2v0.46v9.2h-31.89V69.27z M84.68,71.45h31.98v9.02H93.7C88.72,80.47,84.68,76.44,84.68,71.45L84.68,71.45z
			 M173.88,83.12c0,3.16-0.33,5.95-1,8.38H96.02c-2.31,0-4.19-1.88-4.19-4.19v0c0-2.31,1.88-4.19,4.19-4.19h20.64v1.37h18.59
			c1.64,0,2.98-0.46,4.01-1.37H173.88z M171.79,94.87c-1.09,2.55-2.64,4.65-4.65,6.29c0.49,0.43,0.97,0.88,1.46,1.37h-57.14
			c-2.11,0-3.83-1.71-3.83-3.83v0c0-2.11,1.71-3.83,3.83-3.83H171.79z M171.42,106.62c0.97,2.07,1.67,4.4,2.1,7.02h-56.51
			c-1.94,0-3.51-1.57-3.51-3.51v0c0-1.94,1.57-3.51,3.51-3.51H171.42z M173.88,141.98c0,1.7-0.09,3.31-0.27,4.83H141.8
			c-1.73,0-2.94-1.72-2.36-3.35l0,0c0.36-0.99,1.3-1.66,2.36-1.66h32.08V141.98z M172.42,153.46c-0.43,1.58-0.94,3.04-1.55,4.37
			h-33.76c-1.61,0-2.67-1.68-1.97-3.13l0,0c0.36-0.76,1.13-1.24,1.97-1.24H172.42z M165.23,165.21c-1.7,1.46-3.64,2.67-5.83,3.64
			H84.68v-3.64H165.23z M173.88,124.66h-29.43c-1.44,0-2.69-0.99-3.05-2.38c-0.01-0.02-0.01-0.05-0.02-0.07
			c-0.52-1.98,1-3.92,3.06-3.92h29.45v0.82V124.66z M141.08,80.47c0.67-1.64,0.97-3.8,0.91-6.47v-2.55h31.89v9.02H141.08z
			 M144.65,135.69c-1.49,0-2.66-1.22-2.66-2.7c0-0.01,0-0.02,0-0.03v-0.25c0-1.47,1.19-2.66,2.66-2.66h29.23v5.65H144.65z"/>
	</g>
	<g>
		<path class="st0" d="M168.3,106.73h12.06v6.57h0.25c3.97-4.9,9.18-7.35,15.63-7.35c4.82,0.08,9.03,1.67,12.62,4.76l-8.81,10.77
			c-2.55-2.08-5.19-3.11-7.94-3.11c-3.09,0-5.74,1.04-7.94,3.11c-2.47,2.04-3.75,5.32-3.82,9.87v37.39H168.3V106.73z"/>
		<path class="st0" d="M210.72,137.67c0-6.54,0.52-11.57,1.56-15.08c1.08-3.43,2.74-6.32,4.98-8.68c1.66-2.06,3.97-3.9,6.94-5.53
			c2.93-1.54,6.69-2.36,11.29-2.44c4.74,0.08,8.58,0.9,11.52,2.45c2.89,1.63,5.13,3.49,6.71,5.56c2.38,2.35,4.08,5.24,5.08,8.66
			c0.96,3.51,1.44,8.52,1.44,15.05c0,6.53-0.48,11.51-1.45,14.94c-1,3.43-2.7,6.39-5.09,8.9c-0.77,0.92-1.72,1.81-2.84,2.69
			c-1,1-2.29,1.85-3.88,2.57c-2.93,1.71-6.77,2.61-11.51,2.69c-4.59-0.08-8.35-0.98-11.28-2.69c-2.97-1.55-5.28-3.31-6.94-5.26
			c-2.24-2.51-3.9-5.48-4.97-8.9C211.24,149.18,210.72,144.21,210.72,137.67z M248.17,137.79c0-4.44-0.19-7.67-0.58-9.71
			c-0.39-1.96-1.18-3.68-2.38-5.16c-0.89-1.4-2.2-2.5-3.94-3.3c-1.66-0.84-3.6-1.26-5.8-1.26c-2.05,0-3.94,0.42-5.68,1.26
			c-1.66,0.8-3.02,1.9-4.06,3.3c-1.04,1.48-1.8,3.2-2.26,5.16c-0.46,2.04-0.7,5.24-0.7,9.59c0,4.32,0.23,7.47,0.7,9.47
			c0.46,2.04,1.22,3.84,2.26,5.4c1.04,1.2,2.4,2.26,4.06,3.18c1.74,0.88,3.63,1.32,5.68,1.32c2.2,0,4.14-0.44,5.8-1.32
			c1.74-0.92,3.05-1.98,3.94-3.18c1.2-1.56,1.99-3.36,2.38-5.4C247.98,145.15,248.17,142.03,248.17,137.79z"/>
		<path class="st0" d="M319.09,158.76c-2.62,3.09-5.71,5.61-9.26,7.55c-3.55,2.02-7.66,3.07-12.33,3.15
			c-7.09,0-13.31-2.49-18.66-7.47c-5.55-4.98-8.4-13.04-8.55-24.2c0.15-11.27,3.01-19.44,8.56-24.49
			c5.36-4.98,11.58-7.43,18.68-7.35c4.66,0.08,8.77,1.07,12.32,2.98c3.55,1.95,6.63,4.55,9.25,7.81l-8.91,8.17
			c-3.05-4.2-7.12-6.37-12.21-6.53c-10.26-0.16-15.47,6.31-15.63,19.42c0.15,13.03,5.36,19.44,15.62,19.24
			c5.09-0.08,9.16-2.24,12.21-6.47L319.09,158.76z"/>
		<path class="st0" d="M373.39,158.76c-2.62,3.09-5.71,5.61-9.26,7.55c-3.55,2.02-7.66,3.07-12.33,3.15
			c-7.09,0-13.31-2.49-18.66-7.47c-5.55-4.98-8.4-13.04-8.55-24.2c0.15-11.27,3.01-19.44,8.56-24.49
			c5.36-4.98,11.58-7.43,18.68-7.35c4.66,0.08,8.77,1.07,12.32,2.98c3.55,1.95,6.63,4.55,9.25,7.81l-8.91,8.17
			c-3.05-4.2-7.12-6.37-12.21-6.53c-10.26-0.16-15.47,6.31-15.63,19.42c0.15,13.03,5.36,19.44,15.62,19.24
			c5.09-0.08,9.16-2.24,12.21-6.47L373.39,158.76z"/>
		<path class="st0" d="M380.51,137.67c0-6.54,0.52-11.57,1.56-15.08c1.08-3.43,2.74-6.32,4.98-8.68c1.66-2.06,3.97-3.9,6.94-5.53
			c2.93-1.54,6.69-2.36,11.29-2.44c4.74,0.08,8.58,0.9,11.52,2.45c2.89,1.63,5.13,3.49,6.71,5.56c2.38,2.35,4.08,5.24,5.08,8.66
			c0.96,3.51,1.44,8.52,1.44,15.05c0,6.53-0.48,11.51-1.45,14.94c-1,3.43-2.7,6.39-5.09,8.9c-0.77,0.92-1.72,1.81-2.84,2.69
			c-1,1-2.29,1.85-3.88,2.57c-2.93,1.71-6.77,2.61-11.51,2.69c-4.59-0.08-8.35-0.98-11.28-2.69c-2.97-1.55-5.28-3.31-6.94-5.26
			c-2.24-2.51-3.9-5.48-4.97-8.9C381.03,149.18,380.51,144.21,380.51,137.67z M417.96,137.79c0-4.44-0.19-7.67-0.58-9.71
			c-0.39-1.96-1.18-3.68-2.38-5.16c-0.89-1.4-2.2-2.5-3.94-3.3c-1.66-0.84-3.6-1.26-5.8-1.26c-2.05,0-3.94,0.42-5.68,1.26
			c-1.66,0.8-3.02,1.9-4.06,3.3c-1.04,1.48-1.8,3.2-2.26,5.16c-0.46,2.04-0.7,5.24-0.7,9.59c0,4.32,0.23,7.47,0.7,9.47
			c0.46,2.04,1.22,3.84,2.26,5.4c1.04,1.2,2.4,2.26,4.06,3.18c1.74,0.88,3.63,1.32,5.68,1.32c2.2,0,4.14-0.44,5.8-1.32
			c1.74-0.92,3.05-1.98,3.94-3.18c1.2-1.56,1.99-3.36,2.38-5.4C417.77,145.15,417.96,142.03,417.96,137.79z"/>
		<path class="st0" d="M444.67,81.63h12.06v71.16c0,2.83,1.51,4.25,4.53,4.25h4.18v11.7h-5.38c-4.4,0-8.02-1.13-10.87-3.39
			c-3.01-2.3-4.51-6.17-4.51-11.6V81.63z"/>
		<path class="st0" d="M476.57,81.63h12.06v12.42h-12.06V81.63z M476.57,106.73h12.06v62.01h-12.06V106.73z"/>
	</g>
	<path class="st0" d="M123.69,130.38c0-7-5.67-12.67-12.67-12.67c-1.04,0-2.06,0.12-3.03,0.37c-0.97-5.55-4.95-10.06-10.2-11.8
		c1.62-1.36,2.66-3.41,2.66-5.69c0-4.1-3.32-7.42-7.42-7.42c-4.1,0-7.43,3.32-7.43,7.42c0,2.29,1.03,4.33,2.66,5.69
		c-6.06,2-10.43,7.71-10.43,14.43c0,7.95,6.11,14.47,13.89,15.14c-4.54,2.63-7.73,7.31-8.32,12.78c-0.03,0.22-0.05,0.44-0.07,0.66
		c-0.01,0.12-0.02,0.25-0.02,0.37c0,0.12-0.01,0.24-0.01,0.35c0,0.15-0.01,0.29-0.01,0.44c0,0.26,0.01,0.52,0.02,0.77v0.01
		c0.41,8.94,7.79,16.06,16.83,16.06c9.3,0,16.85-7.54,16.85-16.85c0-2.91-0.74-5.64-2.03-8.02
		C120.02,140.77,123.69,136,123.69,130.38z M113.07,147.9c0,2.68-2.17,4.85-4.85,4.85c-2.68,0-4.85-2.17-4.85-4.85
		s2.17-4.85,4.85-4.85C110.9,143.05,113.07,145.22,113.07,147.9z M94.99,95.08c1.86,0,3.36,1.5,3.36,3.36
		c0,1.86-1.51,3.36-3.36,3.36c-1.86,0-3.36-1.5-3.36-3.36C91.62,96.58,93.13,95.08,94.99,95.08z M91.16,115.15
		c0-3.31,2.68-5.99,5.99-5.99c3.31,0,5.99,2.68,5.99,5.99c0,3.31-2.68,5.99-5.99,5.99C93.84,121.13,91.16,118.46,91.16,115.15z
		 M115.14,131.55c-2.68,0-4.85-2.17-4.85-4.85s2.17-4.85,4.85-4.85c2.68,0,4.85,2.17,4.85,4.85S117.82,131.55,115.14,131.55z"/>
	<path class="st0" d="M90.75,166.6v-0.02c-5.68-3.13-9.54-9.18-9.54-16.13c0-5.34,2.28-10.15,5.92-13.52
		c-7.01-2.1-12.12-8.6-12.12-16.29c0-6.72,3.89-12.52,9.54-15.28c-1.09-1.42-1.74-3.2-1.74-5.12c0-2.4,1.01-4.57,2.62-6.1
		c-0.27-3.16-0.55-6.32-0.83-9.48c-0.31-3.46-3.63-5.83-7-4.99c-21.55,5.34-42.14,10.98-61.61,16.87c-2.35,0.71-3.98,2.85-4.03,5.31
		c-0.39,20.28-0.59,40.71-0.59,61.29v0.06c0,3.12,2.53,5.66,5.66,5.66h71.61C89.86,168.85,90.83,167.82,90.75,166.6z M30.58,104.67
		c-1.3,1.97-3.59,2.74-5.13,1.73c-1.54-1.01-1.74-3.43-0.44-5.4c1.3-1.97,3.59-2.74,5.13-1.73
		C31.68,100.29,31.88,102.7,30.58,104.67z M38.02,117.56c-4.43-0.56-7.82-4.06-5.4-8.49c0.95-1.69,2.36-2.97,3.95-3.98
		c0.72-0.45,1.39-0.97,1.94-1.61c0.78-0.9,1.9-1.6,3.24-1.92c2.96-0.7,5.84,0.73,6.43,3.18c0.29,1.23-0.04,2.56-0.91,3.65
		c-0.81,1.02-2.02,1.76-3.4,2.08c-0.51,0.12-1.03,0.18-1.54,0.18c-0.86,0-1.69-0.17-2.43-0.51c-1.27-0.58-2.16-1.62-2.46-2.85
		c0-0.01,0-0.02-0.01-0.03c-0.31,0.17-0.62,0.36-0.92,0.56c-4.71,3.16-3.8,7.53,1.68,8.83c3.44,0.79,7.13,0.26,10.35-1.23
		C45.42,117.21,41.64,118.07,38.02,117.56z M63.02,99.34c-1.64,1.6-4.75,1.06-6.97-1.21c-2.22-2.26-2.69-5.39-1.06-6.99
		c1.63-1.6,4.75-1.06,6.97,1.21C64.17,94.61,64.65,97.74,63.02,99.34z"/>
	<g>
		<path class="st0" d="M343.5,74.41c0,2.1,0.59,3.7,1.76,4.8c1.09,1.11,2.53,1.67,4.3,1.67c2.07,0,3.92-0.85,5.55-2.55l3.69,3.25
			c-2.59,2.86-5.63,4.27-9.13,4.24c-1.34,0-2.64-0.2-3.91-0.61c-0.64-0.22-1.25-0.51-1.86-0.88c-0.63-0.32-1.23-0.71-1.78-1.19
			c-1.07-0.97-1.95-2.34-2.61-4.09c-0.73-1.68-1.1-3.87-1.1-6.56c0-2.59,0.32-4.74,0.95-6.46c0.63-1.75,1.45-3.13,2.44-4.14
			c1.01-1.03,2.14-1.77,3.39-2.22c1.24-0.45,2.46-0.68,3.66-0.68c2.9,0.03,5.35,1.02,7.35,2.95c2.03,1.97,3.07,4.68,3.1,8.12v4.33
			H343.5z M354.22,70.08c-0.07-2.04-0.6-3.59-1.59-4.64c-0.98-1-2.24-1.5-3.77-1.5c-1.53,0-2.79,0.5-3.77,1.5
			c-0.96,1.05-1.49,2.59-1.59,4.64H354.22z"/>
		<path class="st0" d="M366.24,77.51c2.07,2.24,4.75,3.36,8.03,3.36c1.47,0,2.67-0.29,3.6-0.88c0.93-0.59,1.4-1.41,1.4-2.47
			c0-0.94-0.28-1.6-0.83-1.97c-0.57-0.39-1.33-0.6-2.28-0.63l-4.5-0.4c-2.14-0.2-3.88-0.94-5.21-2.22
			c-1.37-1.24-2.07-2.98-2.11-5.22c0.03-2.69,0.95-4.71,2.76-6.05c1.76-1.35,3.99-2.02,6.7-2.02c1.17,0,2.22,0.08,3.15,0.23
			c0.93,0.17,1.8,0.4,2.62,0.71c1.56,0.66,2.97,1.54,4.2,2.65l-3.16,3.81c-0.98-0.73-2.02-1.33-3.11-1.81
			c-1.08-0.42-2.32-0.64-3.72-0.64c-1.6,0-2.72,0.29-3.35,0.88c-0.67,0.59-1,1.35-1,2.27c-0.03,0.59,0.22,1.1,0.76,1.54
			c0.49,0.49,1.35,0.8,2.59,0.93l4.21,0.33c2.64,0.2,4.55,1.03,5.73,2.47c1.09,1.41,1.64,3.21,1.64,5.38
			c-0.03,2.54-1.03,4.5-3.01,5.88c-1.96,1.41-4.46,2.14-7.5,2.17c-4.14,0-7.86-1.56-11.17-4.69L366.24,77.51z"/>
		<path class="st0" d="M390.44,48.74h5.09v5.24h-5.09V48.74z M390.44,59.33h5.09v26.18h-5.09V59.33z"/>
		<path class="st0" d="M416.92,82.77c-1.68,1.96-3.86,2.97-6.54,3.04c-1.64-0.03-3.01-0.4-4.1-1.09c-1.14-0.66-2.01-1.36-2.61-2.12
			c-0.67-0.86-1.15-1.91-1.44-3.15c-0.31-1.23-0.46-3.57-0.46-7.02c0-3.52,0.15-5.9,0.46-7.14c0.29-1.23,0.77-2.26,1.44-3.1
			c0.6-0.82,1.47-1.56,2.61-2.21c1.09-0.62,2.46-0.94,4.1-0.98c2.52,0,4.7,1.03,6.54,3.1v-2.77h5.09v25.55
			c-0.07,3.93-1.16,6.83-3.29,8.68c-2.15,1.9-4.72,2.85-7.71,2.85c-3.43-0.07-6.36-1.53-8.78-4.38l3.95-3.25
			c0.65,0.62,1.4,1.16,2.25,1.6c0.86,0.49,1.76,0.75,2.68,0.79c1.74,0,3.14-0.5,4.2-1.49c1.04-1.01,1.58-2.42,1.61-4.21V82.77z
			 M406.85,72.44c0,2.01,0.07,3.39,0.2,4.15c0.11,0.79,0.38,1.45,0.81,1.97c0.34,0.47,0.86,0.9,1.56,1.29
			c0.67,0.47,1.5,0.71,2.49,0.71c0.99,0,1.82-0.24,2.49-0.71c0.67-0.39,1.17-0.82,1.52-1.29c0.42-0.52,0.71-1.18,0.85-1.97
			c0.1-0.76,0.15-2.14,0.15-4.15c0-2.04-0.05-3.46-0.15-4.25c-0.15-0.79-0.43-1.43-0.85-1.92c-0.34-0.47-0.85-0.94-1.52-1.39
			c-0.67-0.39-1.5-0.6-2.49-0.63c-0.99,0.03-1.82,0.24-2.49,0.63c-0.7,0.46-1.22,0.92-1.56,1.39c-0.42,0.49-0.69,1.13-0.81,1.92
			C406.92,68.98,406.85,70.4,406.85,72.44z"/>
		<path class="st0" d="M429.48,59.33h5.09v2.77h0.1c1.68-2.07,3.87-3.1,6.59-3.1c2.1,0,4.02,0.77,5.76,2.3
			c1.72,1.55,2.63,3.82,2.71,6.81v17.4h-5.09V69.9c0-1.83-0.47-3.23-1.42-4.19c-0.93-0.98-2.13-1.46-3.59-1.46
			c-1.47,0-2.67,0.49-3.62,1.46c-0.96,0.96-1.44,2.36-1.44,4.19v15.61h-5.09V59.33z"/>
	</g>
	<path class="st0" d="M305.23,70.57l-3.58,3.58v-0.67c0-0.19,0-0.36,0-0.53c0-0.17,0.07-0.34,0.22-0.53l3.35-3.3V70.57z
		 M305.23,72.19v1.45l-3.58,3.58v-1.45L305.23,72.19z M305.23,75.55V77l-3.58,3.58v-1.45L305.23,75.55z M305.56,78.4v1.68
		l-3.69,3.63v-1.73L305.56,78.4z M302.1,85.28c0-0.04,0.02-0.08,0.06-0.11l3.58-3.69l0.73,0.73l-3.86,3.86h-0.06
		c-0.19,0-0.31-0.07-0.36-0.2c-0.06-0.13-0.08-0.27-0.08-0.42V85.28z M305.73,65.82c0,0.19-0.01,0.42-0.03,0.7
		c-0.02,0.28-0.07,0.49-0.14,0.64l-3.19,3.13h-0.22c0-0.11,0.03-0.35,0.08-0.73c0.06-0.37,0.1-0.61,0.14-0.73l0.11-0.22l0.11-0.22
		l3.13-3.13V65.82z M305.96,39.15c0,0.08,0.01,0.21,0.03,0.39c0.02,0.19,0.03,0.32,0.03,0.39c0,0.37-0.02,0.62-0.06,0.75
		c-0.04,0.13-0.17,0.34-0.39,0.64c-0.11,0.11-0.33,0.32-0.64,0.62c-0.32,0.3-0.64,0.62-0.98,0.95c-0.34,0.34-0.65,0.64-0.95,0.92
		c-0.3,0.28-0.5,0.48-0.62,0.59v-1.62L305.96,39.15z M305.96,42.5v1.4l-3.58,3.69v-1.51L305.96,42.5z M305.96,45.63v1.45l-3.58,3.58
		v-1.45L305.96,45.63z M305.96,48.99v1.45l-3.58,3.58v-1.45L305.96,48.99z M306.35,52.06c0,0.19-0.01,0.47-0.03,0.84
		c-0.02,0.37-0.14,0.65-0.36,0.84l-3.08,3.13l-0.5,0.22v-0.56c0-0.19,0-0.37,0-0.56c0-0.19,0.07-0.35,0.22-0.5l3.35-3.41H306.35z
		 M305.96,36.74h0.28l-0.28,0.73l-3.35,3.35v-0.67L305.96,36.74z M306.23,55.25v1.4l-3.63,3.58v-1.4L306.23,55.25z M306.23,58.33
		v1.4l-3.63,3.58v-1.4L306.23,58.33z M306.23,63.14l-3.63,3.58v-0.39c0-0.19,0.02-0.42,0.06-0.7c0.04-0.28,0.11-0.48,0.22-0.59
		l3.58-3.58L306.23,63.14z M308.42,82.2c0.07,0,0.22,0.04,0.45,0.11c0.22,0.07,0.37,0.13,0.45,0.17l-3.58,3.58h-1.4l3.58-3.58
		c0.04-0.04,0.11-0.09,0.22-0.17C308.25,82.24,308.34,82.2,308.42,82.2z M306.23,70.91c0-1.75,0.2-3.49,0.59-5.2
		c0.39-1.71,0.59-3.45,0.59-5.2v-0.56c0-0.48-0.01-1.22-0.03-2.21c-0.02-0.99-0.05-2.11-0.08-3.35c-0.04-1.25-0.08-2.57-0.11-3.97
		c-0.04-1.4-0.08-2.72-0.11-3.97c-0.04-1.25-0.07-2.38-0.08-3.38c-0.02-1.01-0.03-1.75-0.03-2.24l0.22-4.53
		c0-0.11,0.04-0.28,0.11-0.5c0.07-0.22,0.2-0.37,0.39-0.45h3.8c0.07,0,0.25-0.01,0.53-0.03c0.28-0.02,0.58-0.05,0.89-0.08
		c0.32-0.04,0.62-0.07,0.89-0.08c0.28-0.02,0.46-0.03,0.53-0.03c0.04,0,0.28,0,0.73,0c0.45,0,0.97-0.01,1.57-0.03
		c0.6-0.02,1.19-0.03,1.79-0.03c0.6,0,1.08,0,1.45,0c0.22,0,0.6,0,1.12,0c0.52,0,1.07,0.01,1.65,0.03c0.58,0.02,1.13,0.03,1.65,0.03
		c0.52,0,0.88,0,1.06,0c1.08,0.11,2.17,0.27,3.27,0.48c1.1,0.21,2.15,0.53,3.16,0.98c0.22,0,0.39,0.06,0.5,0.17
		c1.42,0.89,2.72,1.82,3.91,2.77c1.19,0.95,2.37,2.04,3.52,3.27c0.86,0.89,1.51,1.9,1.96,3.02c0.45,1.12,0.82,2.26,1.12,3.41
		c0.07,0.22,0.18,0.55,0.31,0.98c0.13,0.43,0.26,0.88,0.39,1.34c0.13,0.47,0.25,0.89,0.36,1.26c0.11,0.37,0.17,0.62,0.17,0.73
		c0.11,0.48,0.17,0.94,0.17,1.37c0,0.43,0.11,0.85,0.34,1.26v3.58c0,0.08,0.04,0.2,0.11,0.36c0.07,0.17,0.11,0.29,0.11,0.36v0.17
		v0.06c0,0.04-0.04,0.13-0.11,0.28l-0.11,0.22c-0.04,0.11-0.09,0.29-0.17,0.53c-0.08,0.24-0.11,0.4-0.11,0.48c0,0.04,0,0.15,0,0.34
		c0,0.19,0,0.38,0,0.59c0,0.21,0,0.4,0,0.59c0,0.19,0,0.3,0,0.34c0,0.04-0.04,0.12-0.11,0.25c-0.08,0.13-0.11,0.22-0.11,0.25
		c0,0.08-0.04,0.28-0.11,0.62c-0.08,0.34-0.11,0.54-0.11,0.62c-0.08,0.22-0.22,0.62-0.42,1.17c-0.21,0.56-0.42,1.16-0.64,1.79
		c-0.22,0.63-0.44,1.23-0.64,1.79c-0.21,0.56-0.35,0.95-0.42,1.17c-0.52,0.63-1,1.31-1.43,2.04c-0.43,0.73-0.94,1.41-1.54,2.04
		c-0.78,0.93-1.66,1.69-2.63,2.26c-0.97,0.58-1.99,1.18-3.08,1.82c-0.08,0.04-0.17,0.08-0.28,0.14c-0.11,0.06-0.19,0.08-0.22,0.08
		c-0.04,0.04-0.15,0.05-0.34,0.03c-0.19-0.02-0.32-0.03-0.39-0.03c-1.19,0.19-2.32,0.38-3.38,0.59c-1.06,0.2-2.25,0.34-3.55,0.42
		c-0.19,0-0.62,0-1.31,0c-0.69,0-1.44,0-2.26,0c-0.82,0-1.58,0-2.26,0s-1.13,0-1.31,0c-0.11,0-0.41,0.01-0.89,0.03
		c-0.48,0.02-0.99,0.05-1.51,0.08c-0.52,0.04-1.03,0.06-1.51,0.08c-0.48,0.02-0.78,0.03-0.89,0.03h-4.98
		c-0.08,0.04-0.2,0.09-0.36,0.17c-0.17,0.07-0.29,0.07-0.36,0c-0.04,0-0.08-0.05-0.14-0.14c-0.06-0.09-0.08-0.18-0.08-0.25
		c-0.04-0.08-0.08-0.3-0.14-0.67c-0.06-0.37-0.1-0.63-0.14-0.78c-0.19-1.42-0.31-2.87-0.36-4.36
		C306.26,73.78,306.23,72.32,306.23,70.91z M312.72,82.48l-3.41,3.41c-0.15,0.15-0.32,0.21-0.5,0.2c-0.19-0.02-0.37-0.03-0.56-0.03
		h-0.56l3.58-3.58c0.07-0.08,0.29-0.14,0.64-0.2c0.35-0.06,0.62-0.08,0.81-0.08V82.48z M316.08,82.2c-0.08,0.07-0.13,0.17-0.17,0.28
		c-0.04,0.11-0.08,0.19-0.11,0.22c-0.08,0.11-0.22,0.28-0.45,0.5c-0.22,0.22-0.47,0.46-0.73,0.7c-0.26,0.24-0.5,0.48-0.73,0.73
		c-0.22,0.24-0.39,0.42-0.5,0.53c-0.11,0.07-0.28,0.2-0.5,0.36c-0.22,0.17-0.35,0.29-0.39,0.36h-0.78h-0.73l3.63-3.69H316.08z
		 M319.65,81.98l-3.58,3.58h-1.45l3.58-3.58H319.65z M318.42,70.07c0.04,0.26,0.08,0.57,0.14,0.92c0.06,0.35,0.25,0.59,0.59,0.7
		c0.07,0,0.24,0.01,0.5,0.03c0.26,0.02,0.43,0.03,0.5,0.03c0.07,0,0.23-0.01,0.48-0.03c0.24-0.02,0.38-0.03,0.42-0.03
		c0.22,0,0.6-0.02,1.12-0.06c0.52-0.04,1.07-0.08,1.65-0.14c0.58-0.06,1.13-0.1,1.65-0.14c0.52-0.04,0.89-0.07,1.12-0.11
		c6.26-1.68,9.39-5.78,9.39-12.3c0-1.19-0.22-2.49-0.64-3.89c-0.43-1.4-0.96-2.62-1.59-3.66c-0.11-0.11-0.29-0.3-0.53-0.56
		c-0.24-0.26-0.5-0.53-0.78-0.81c-0.28-0.28-0.55-0.54-0.81-0.78c-0.26-0.24-0.45-0.42-0.56-0.53c-0.04,0-0.29-0.13-0.75-0.39
		c-0.47-0.26-0.83-0.43-1.09-0.5c-0.37-0.19-0.81-0.36-1.31-0.53c-0.5-0.17-0.94-0.31-1.31-0.42c-0.3,0-0.81-0.03-1.54-0.08
		c-0.73-0.06-1.5-0.11-2.32-0.17c-0.82-0.06-1.59-0.11-2.32-0.17c-0.73-0.06-1.22-0.08-1.48-0.08h-0.73h-0.73
		c0,0.19-0.02,0.54-0.06,1.06c-0.04,0.52-0.07,1.08-0.08,1.68c-0.02,0.6-0.05,1.16-0.08,1.68c-0.04,0.52-0.06,0.89-0.06,1.12v0.34
		v0.34l1.23,15.32V70.07z M321.28,81.98h1.45l-3.8,3.91h-1.23v-0.34L321.28,81.98z M321.78,47.59l-3.58,3.58V51v-0.11
		c0.04-0.22,0.08-0.51,0.14-0.87c0.06-0.35,0.08-0.55,0.08-0.59l1.9-1.84H321.78z M323.85,47.48c0.04,0,0.18,0.01,0.42,0.03
		c0.24,0.02,0.36,0.12,0.36,0.31c0,0.04-0.02,0.11-0.06,0.22c-0.04,0.11-0.09,0.21-0.17,0.28l-3.13,3.08h-1.62l3.8-3.8
		c0.04,0,0.09-0.02,0.17-0.06c0.04,0,0.07-0.01,0.11-0.03C323.77,47.49,323.81,47.48,323.85,47.48z M326.08,81.98l-3.58,3.58h-1.45
		l3.35-3.35c0.11-0.11,0.3-0.18,0.56-0.2c0.26-0.02,0.47-0.03,0.62-0.03H326.08z M322.73,51.56l3.58-3.58h0.34
		c0.19,0,0.34,0.01,0.45,0.03c0.11,0.02,0.24,0.12,0.39,0.31l-3.75,3.75h-0.17h-0.11c-0.08-0.04-0.21-0.07-0.39-0.11
		c-0.19-0.04-0.3-0.06-0.34-0.06v-0.17V51.56z M329.66,81.48c0,0.07-0.03,0.17-0.08,0.28c-0.06,0.11-0.1,0.19-0.14,0.22
		c-0.08,0.11-0.22,0.28-0.45,0.5c-0.22,0.22-0.46,0.46-0.7,0.7c-0.24,0.24-0.48,0.48-0.73,0.73c-0.24,0.24-0.4,0.42-0.48,0.53
		c-0.37,0.3-0.72,0.53-1.03,0.7c-0.32,0.17-0.72,0.25-1.2,0.25h-0.45l3.58-3.58c0.19-0.04,0.37-0.08,0.56-0.11
		c0.15-0.04,0.31-0.08,0.48-0.11c0.17-0.04,0.31-0.08,0.42-0.11h0.17H329.66z M328.71,48.71c0.07,0.04,0.17,0.08,0.28,0.11
		c0.22,0.08,0.37,0.13,0.45,0.17c0.15,0,0.22,0.08,0.22,0.22l-3.8,3.8l-0.06,0.06h-0.11c-0.15,0-0.3-0.06-0.45-0.17
		c-0.15-0.11-0.28-0.22-0.39-0.34L328.71,48.71z M327.09,53.74l3.8-3.8H331h0.06c0.26,0.08,0.43,0.24,0.5,0.5v0.06v0.17l-3.75,3.86
		h-0.17h-0.17c-0.04-0.04-0.11-0.12-0.22-0.25c-0.11-0.13-0.17-0.21-0.17-0.25c-0.04,0-0.06-0.02-0.06-0.06v-0.11L327.09,53.74z
		 M332.29,51.56h0.17c0.15,0,0.28,0.11,0.39,0.34c0.11,0.22,0.17,0.41,0.17,0.56v0.11l-3.58,3.58h-0.17h-0.06
		c-0.08-0.04-0.2-0.14-0.36-0.31s-0.29-0.29-0.36-0.36L332.29,51.56z M331.79,81.31c0.41-0.08,0.8-0.16,1.17-0.25
		c0.37-0.09,0.73-0.25,1.06-0.48c-0.08,0.07-0.21,0.2-0.39,0.39c-0.19,0.19-0.38,0.37-0.59,0.56c-0.21,0.19-0.4,0.37-0.59,0.56
		c-0.19,0.19-0.32,0.32-0.39,0.39c-0.04,0.07-0.14,0.16-0.31,0.25c-0.17,0.09-0.29,0.18-0.36,0.25c-0.11,0.07-0.31,0.19-0.59,0.34
		c-0.28,0.15-0.57,0.32-0.87,0.5c-0.3,0.19-0.59,0.36-0.87,0.53c-0.28,0.17-0.48,0.27-0.59,0.31L331.79,81.31z M333.52,53.74h0.06
		h0.17c0,0.04,0.04,0.15,0.11,0.34c0.07,0.19,0.13,0.34,0.17,0.45v0.11v0.11l-3.86,3.8l-0.5-0.95L333.52,53.74z M330.61,59.84
		c0-0.04,0.02-0.07,0.06-0.11l3.8-3.75l0.28,1.12l-3.86,3.86c-0.19-0.22-0.28-0.54-0.28-0.95V59.84z M334.53,62.63
		c0,0.45-0.11,0.89-0.34,1.31c-0.22,0.43-0.49,0.84-0.81,1.23c-0.32,0.39-0.65,0.75-1.01,1.09c-0.35,0.34-0.68,0.63-0.98,0.89
		c-0.08,0-0.17,0.04-0.28,0.11c-0.11,0.08-0.19,0.11-0.22,0.11v-0.11v-0.11c0-0.19,0.04-0.47,0.11-0.84
		c0.04-0.15,0.06-0.34,0.06-0.56l3.41-3.35L334.53,62.63z M334.97,58.83v1.4l-3.58,3.58l-0.34-1.17L334.97,58.83z"/>
</g>
</svg>
