<?xml version="1.0" encoding="utf-8"?>
<!-- Generator: Adobe Illustrator 21.0.0, SVG Export Plug-In . SVG Version: 6.00 Build 0)  -->
<svg version="1.1" xmlns="http://www.w3.org/2000/svg" xmlns:xlink="http://www.w3.org/1999/xlink" x="0px" y="0px"
	 viewBox="0 0 800 500" style="enable-background:new 0 0 800 500;" xml:space="preserve">
<style type="text/css">
	.st0{fill:#231815;}
	.st1{font-family:'DeepColorRegular';}
	.st2{font-size:77.7326px;}
</style>
<g id="圖層_1">
</g>
<g id="圖層_2">
</g>
<g id="圖層_3">
	<g>
		<g id="圖層_3_1_">
			<path class="st0" d="M429.7,72.8L401,54.2c-5.5-3.5-12.5-3.3-17.7,0.5l-87.4,64.6c-4.7,3.4-7,9.2-6.1,15L310.4,265
				c0.7,4,2.8,7.6,6.1,10.1l71.1,52.7c5.6,4.1,13.3,4.1,18.9-0.2l20.9-16.2c7.1-5.5,8.1-15.9,2.2-22.6l-59.2-67.3
				c-4.5-5.1-5.1-12.5-1.6-18.3l65.9-109.3C438.9,86.7,436.8,77.3,429.7,72.8z"/>
		</g>
		<circle class="st0" cx="482.1" cy="209.9" r="28.4"/>
	</g>
	<g>
		<path class="st0" d="M792,8v484H8V8H792 M800,0H0v500h800V0L800,0z"/>
	</g>
	<text transform="matrix(1 0 0 1 65.9858 432.79)" class="st1 st2">BROCCOLI DESIGN</text>
</g>
</svg>
